<svg width="24" height="24" viewBox="0 0 24 24" fill="none" xmlns="http://www.w3.org/2000/svg">
<rect width="24" height="24" rx="8" fill="#1D2233"/>
<path d="M10.4444 11.2778C10.0763 11.2778 9.77778 11.5203 9.77778 11.8194C9.77778 12.1186 10.0763 12.3611 10.4444 12.3611H13.5556C13.9237 12.3611 14.2222 12.1186 14.2222 11.8194C14.2222 11.5203 13.9237 11.2778 13.5556 11.2778H10.4444ZM4 7.125C4 6.22754 4.89543 5.5 6 5.5H18C19.1045 5.5 20 6.22754 20 7.125V8.20833C20 8.77174 19.6471 9.26818 19.1111 9.55969V15.7917C19.1111 17.2875 17.6188 18.5 15.7778 18.5H8.22222C6.38127 18.5 4.88889 17.2875 4.88889 15.7917V9.55969C4.3529 9.26818 4 8.77174 4 8.20833V7.125ZM6.22222 9.83333V15.7917C6.22222 16.6891 7.11765 17.4167 8.22222 17.4167H15.7778C16.8823 17.4167 17.7778 16.6891 17.7778 15.7917V9.83333H6.22222ZM6 6.58333C5.63181 6.58333 5.33333 6.82585 5.33333 7.125V8.20833C5.33333 8.50748 5.63181 8.75 6 8.75H18C18.3682 8.75 18.6667 8.50748 18.6667 8.20833V7.125C18.6667 6.82585 18.3682 6.58333 18 6.58333H6Z" fill="white"/>
</svg>
