<svg width="32" height="32" viewBox="0 0 32 32" fill="none" xmlns="http://www.w3.org/2000/svg">
<path d="M3.33337 5.66675C3.33337 5.11447 3.78109 4.66675 4.33337 4.66675H5.07772C6.34501 4.66675 7.1038 5.51873 7.53771 6.31073C7.82692 6.83867 8.03615 7.45099 8.1998 8.00535C8.24412 8.00187 8.28903 8.00008 8.33444 8.00008H24.9975C26.1044 8.00008 26.9038 9.05931 26.6003 10.1238L24.1632 18.6693C23.7142 20.2443 22.275 21.3305 20.6372 21.3305H12.7064C11.0551 21.3305 9.60751 20.2266 9.17048 18.6342L8.15649 14.9394L6.47836 9.27445L6.47564 9.26453C6.26804 8.50743 6.0732 7.80015 5.78368 7.27168C5.50252 6.75848 5.2784 6.66675 5.07772 6.66675H4.33337C3.78109 6.66675 3.33337 6.21903 3.33337 5.66675ZM12 28.0001C13.4728 28.0001 14.6667 26.8062 14.6667 25.3334C14.6667 23.8606 13.4728 22.6667 12 22.6667C10.5273 22.6667 9.33337 23.8606 9.33337 25.3334C9.33337 26.8062 10.5273 28.0001 12 28.0001ZM21.3334 28.0001C22.8062 28.0001 24 26.8062 24 25.3334C24 23.8606 22.8062 22.6667 21.3334 22.6667C19.8606 22.6667 18.6667 23.8606 18.6667 25.3334C18.6667 26.8062 19.8606 28.0001 21.3334 28.0001Z" fill="white"/>
</svg>
