<svg width="36" height="36" viewBox="0 0 36 36" fill="none" xmlns="http://www.w3.org/2000/svg">
<path d="M7.18164 23.5758C7.18421 21.2831 8.09612 19.085 9.71729 17.4638C11.3385 15.8427 13.5365 14.9308 15.8292 14.9282V20.1165C14.9122 20.1176 14.033 20.4823 13.3846 21.1308C12.7361 21.7792 12.3714 22.6584 12.3703 23.5754C12.3703 25.275 13.2894 27.1034 15.3076 27.1034C15.4418 27.1034 18.5965 27.0724 18.5965 24.3894V4.72363H24.1254C24.1284 5.96354 24.6225 7.15176 25.4997 8.0281C26.3768 8.90445 27.5655 9.39751 28.8054 9.39931L28.8007 14.5783C27.0354 14.5918 25.3005 14.1185 23.7866 13.2103L23.7845 24.3894C23.7845 29.5222 19.4166 32.2917 15.3068 32.2917C10.6751 32.2928 7.18164 28.5452 7.18164 23.5758Z" fill="#1D2233"/>
<path d="M14.446 15.0323C8.86238 15.7408 4.44589 22.8623 9.02798 29.2707C13.2609 32.7328 22.1655 30.7193 22.4121 23.2288L22.4059 11.833C23.9288 12.7269 25.6636 13.1958 27.4294 13.1909V9.18378C26.3912 8.83314 25.4936 8.15726 24.8698 7.25634C23.9544 6.65419 23.275 5.75434 22.9467 4.70898H18.5989L18.5961 24.4463C18.5921 27.205 13.9917 28.1875 12.8238 25.5101C9.89918 24.1119 10.5605 18.7979 14.4521 18.74L14.446 15.0323Z" fill="#1D2233"/>
</svg>
