<svg width="32" height="32" viewBox="0 0 32 32" fill="none" xmlns="http://www.w3.org/2000/svg">
<path d="M26.9113 4.00675C27.5041 4.07108 28.0655 4.30703 28.5272 4.6859C28.9889 5.06476 29.331 5.57021 29.5119 6.14073C30.5046 8.54146 29.7636 13.2306 29.2183 15.8139C28.5712 19.252 27.4512 22.5831 25.8906 25.7115C25.6697 26.2565 25.3264 26.7429 24.8874 27.1325C24.4484 27.5222 23.9256 27.8047 23.3598 27.9578C23.2122 27.9851 23.0625 27.9992 22.9124 28C20.1859 28 17.5852 24.4621 16.0053 21.7805C14.4113 24.462 11.8247 28 9.09817 28C8.94803 28.0006 8.79818 27.9864 8.65076 27.9579C8.08208 27.8074 7.55609 27.5261 7.11441 27.1362C6.67274 26.7464 6.3275 26.2586 6.10604 25.7116C4.55157 22.5805 3.43191 19.2503 2.77831 15.8138C2.24696 13.2306 1.49195 8.54148 2.48468 6.14071C2.66554 5.57019 3.00764 5.06475 3.46936 4.6859C3.93109 4.30704 4.49252 4.07109 5.08535 4.00677C7.5322 3.83828 10.4404 6.81461 14.8028 13.9747C15.2503 14.7047 15.6557 15.3786 16.0053 15.9683C16.3548 15.3786 16.7603 14.7047 17.1938 13.9747C21.5562 6.81461 24.4504 3.83828 26.9113 4.00675ZM5.18322 7.16561L5.15526 7.2358L5.11331 7.34811C4.58198 8.86436 4.97349 12.9077 6.07805 17.288C6.64363 19.916 7.6005 22.4434 8.91641 24.785C8.99091 24.8955 9.10298 24.9751 9.23166 25.0087C9.36034 25.0423 9.4968 25.0276 9.6155 24.9675C10.7571 24.2031 11.7128 23.1907 12.4119 22.0051C13.1201 20.9791 13.7645 19.91 14.3414 18.8042C13.6843 17.681 13.0131 16.5719 12.328 15.4628C8.5389 9.22937 6.53947 7.51658 5.72851 7.03923C5.63807 6.98921 5.53243 6.97443 5.43182 6.99774C5.3312 7.02105 5.24269 7.0808 5.18322 7.16556V7.16561ZM26.8414 7.2358C26.8251 7.18634 26.7987 7.14083 26.7639 7.10222C26.7291 7.0636 26.6866 7.03272 26.6392 7.01157C26.5918 6.99041 26.5405 6.97945 26.4887 6.97938C26.4368 6.97931 26.3855 6.99014 26.338 7.01118C26.3134 7.01672 26.2897 7.0262 26.2681 7.03925C25.4711 7.50254 23.4717 9.20132 19.6686 15.4629C18.9974 16.572 18.3123 17.6951 17.6412 18.8042C18.7119 21.1604 20.2931 23.2469 22.2692 24.9113C22.4071 24.9981 22.5733 25.0276 22.7325 24.9936C22.8917 24.9595 23.0314 24.8645 23.1221 24.7288C24.4155 22.401 25.3579 19.8934 25.9185 17.288C27.0511 12.7954 27.4426 8.65377 26.8414 7.2358Z" fill="#1D2233"/>
</svg>
