<svg width="32" height="32" viewBox="0 0 32 32" fill="none" xmlns="http://www.w3.org/2000/svg">
<path d="M21.3064 11.2599C21.6513 11.2599 21.9907 11.2856 22.332 11.3224C21.4131 7.1208 16.84 4 11.6182 4C5.78134 4 1 7.90513 1 12.867C1 15.7302 2.59003 18.0814 5.24878 19.9079L4.1875 23.0435L7.89999 21.2171C9.22745 21.4729 10.2925 21.738 11.618 21.738C11.9518 21.738 12.2818 21.7234 12.6081 21.6995C12.4018 21.0016 12.28 20.2725 12.28 19.5122C12.2819 14.9568 16.2645 11.2599 21.3064 11.2599ZM15.5989 8.4335C16.4013 8.4335 16.9283 8.95097 16.9283 9.73527C16.9283 10.5159 16.4013 11.0388 15.5989 11.0388C14.8055 11.0388 14.007 10.5159 14.007 9.73527C14.007 8.94906 14.8038 8.4335 15.5989 8.4335ZM8.16815 11.0389C7.3712 11.0389 6.56877 10.5159 6.56877 9.7353C6.56877 8.9508 7.3712 8.43354 8.16815 8.43354C8.96507 8.43354 9.49383 8.94906 9.49383 9.7353C9.49386 10.5159 8.96493 11.0389 8.16815 11.0389ZM31 19.3869C31 15.2183 26.7512 11.8214 21.9794 11.8214C16.9264 11.8214 12.9493 15.2201 12.9493 19.3869C12.9493 23.5664 16.9283 26.9522 21.9794 26.9522C23.0369 26.9522 24.1038 26.6927 25.1651 26.4314L28.0769 28L27.2782 25.3929C29.4101 23.8204 31 21.738 31 19.3869ZM19.0507 18.0814C18.5239 18.0814 17.9895 17.5659 17.9895 17.0393C17.9895 16.5202 18.5238 15.9973 19.0507 15.9973C19.857 15.9973 20.38 16.5202 20.38 17.0393C20.38 17.5659 19.857 18.0814 19.0507 18.0814ZM24.8913 18.0814C24.3682 18.0814 23.8358 17.5659 23.8358 17.0393C23.8358 16.5202 24.3664 15.9973 24.8913 15.9973C25.6901 15.9973 26.2207 16.5202 26.2207 17.0393C26.2207 17.5659 25.6903 18.0814 24.8913 18.0814Z" fill="#1D2233"/>
</svg>
