<svg width="194" height="24" viewBox="0 0 194 24" fill="none" xmlns="http://www.w3.org/2000/svg">
<g clip-path="url(#clip0_537_5896)">
<path d="M57.0944 11.7741C57.0944 11.5073 56.9942 11.3072 56.7938 11.1404C56.7603 11.107 56.7603 11.107 56.727 11.0737L46.0707 0.800531C45.6699 0.400279 44.8681 0.100098 44.3003 0.100098H39.657C39.0891 0.100098 38.9554 0.433634 39.3563 0.800531L47.5071 8.6388L50.7808 11.7741L50.0459 12.4746L39.3897 22.7477C38.9889 23.148 39.1225 23.4481 39.6904 23.4481H44.3337C44.9015 23.4481 45.7033 23.1146 46.1041 22.7477L56.7603 12.4746C56.7938 12.4412 56.7938 12.4412 56.8272 12.4079C56.9608 12.2411 57.0944 12.041 57.0944 11.7741Z" fill="#F8B500"/>
<path d="M34.3455 0.100098H31.005C30.4371 0.100098 29.9695 0.567051 29.9695 1.13407V22.4475C29.9695 23.0145 30.4371 23.4815 31.005 23.4815H34.3455C34.9134 23.4815 35.3811 23.0145 35.3811 22.4475V1.13407C35.3477 0.567051 34.9134 0.100098 34.3455 0.100098Z" fill="#00A9F0"/>
<path d="M95.243 0.0997729L91.6352 0.0664062C91.0673 0.0664062 90.5997 0.53338 90.5997 1.1004V1.13375V14.4755C90.5997 20.6794 76.7031 20.7127 76.7031 14.3087V1.1004C76.7031 1.0337 76.7031 1.00034 76.6697 0.933633C76.6029 0.433316 76.1686 0.0664063 75.6676 0.0664063H72.1266C71.5587 0.0664063 71.0911 0.53338 71.0911 1.1004V1.13375V8.70517V15.9764C71.0911 16.7102 71.1579 17.3773 71.3249 18.011C73.396 26.1829 93.8065 25.8827 95.911 17.7776C96.1449 16.9103 96.2451 16.41 96.2451 15.5428V8.70517V1.1004C96.2451 0.566736 95.8108 0.0997729 95.243 0.0997729Z" fill="#00A9F0"/>
<path d="M67.5835 0.100098H62.9402C62.3723 0.100098 61.5706 0.433634 61.1697 0.800531L55.2236 6.50413L58.5641 9.7395L67.8508 0.800531C68.2516 0.400279 68.1514 0.100098 67.5835 0.100098Z" fill="#00A9F0"/>
<path d="M58.5641 13.8086L55.2236 17.044L61.1697 22.7476C61.5706 23.1478 62.3723 23.448 62.9402 23.448H67.5835C68.1514 23.448 68.285 23.1145 67.8842 22.7476L58.5641 13.8086Z" fill="#00A9F0"/>
<path d="M159.08 14.6758H155.773C156.374 17.144 156.842 19.0785 157.477 21.5801C157.877 23.1144 158.145 23.3479 159.681 23.3479H161.118H162.02H162.053L160.182 15.5763C160.116 15.0427 159.648 14.6758 159.08 14.6758Z" fill="#00A9F0"/>
<path d="M136.031 15.2427H135.931C135.596 15.2427 134.661 15.4095 134.561 16.6769L134.227 20.0123L134.093 21.2131L133.993 22.3471L133.893 23.3811H136.398C137.3 23.3811 137.935 23.0142 138.035 21.9469L138.703 15.2427H136.031Z" fill="#00A9F0"/>
<path d="M150.963 14.6758H147.622L148.758 18.7784C149.059 19.879 149.526 19.879 150.562 19.879C151.831 19.879 152.099 19.879 153.368 19.879V19.8123L152.132 15.5096C151.932 15.0093 151.497 14.6758 150.963 14.6758Z" fill="#00A9F0"/>
<path fill-rule="evenodd" clip-rule="evenodd" d="M135.83 11.7741L135.864 11.8075L135.93 11.8742L135.997 11.9409L136.031 11.9742C136.064 12.0076 136.097 12.041 136.131 12.0743C136.231 12.141 136.298 12.2077 136.398 12.2744C136.431 12.3078 136.498 12.3078 136.532 12.3411L136.598 12.3745L136.665 12.4079C136.832 12.4746 137.033 12.5079 137.2 12.5079C137.233 12.5079 137.267 12.5079 137.3 12.5079H152.666H153.902H154.203C154.47 12.5079 154.671 12.3078 154.671 12.041V11.0737C154.671 10.8068 154.47 10.6067 154.203 10.6067H152.666H150.261V7.60483H156.074V12.5413H157.477H158.345H158.779C158.846 12.5413 158.913 12.5413 158.946 12.5413C159.414 12.5079 159.815 12.2744 160.116 11.9075C160.349 11.6074 160.517 11.2405 160.517 10.8402V10.6067V10.3065V2.03465V1.83453C160.517 1.80117 160.517 1.7678 160.517 1.73445V1.66775C160.517 1.6344 160.517 1.56768 160.483 1.53433V1.50098C160.483 1.46763 160.483 1.43426 160.45 1.4009L160.416 1.30085V1.2675C160.182 0.600414 159.548 0.100098 158.779 0.100098C158.746 0.100098 158.713 0.100098 158.679 0.100098C158.646 0.100098 158.579 0.100098 158.546 0.100098H138.235H137.634H137.2C136.966 0.100098 136.765 0.13344 136.565 0.233503C136.064 0.466981 135.663 0.900594 135.53 1.46762C135.53 1.50097 135.496 1.56769 135.496 1.60104V1.63439C135.496 1.7011 135.496 1.76781 135.496 1.80116V2.06799V2.36819V10.7401C135.496 10.8068 135.496 10.8402 135.496 10.9069C135.529 11.2405 135.63 11.5406 135.83 11.7741ZM150.295 2.20142H156.107V5.2033H150.295V2.20142ZM139.906 2.40153V2.23476H145.852V5.23666H139.906V2.40153ZM139.906 7.57146H145.852V10.5734H139.906V7.57146Z" fill="#00A9F0"/>
<path d="M156.04 21.6468C155.973 21.38 155.706 21.1799 155.406 21.1799H144.716V14.6758H142.511H142.478H142.444H142.411C142.21 14.6758 142.01 14.7091 141.81 14.8092C141.509 14.9426 141.275 15.1427 141.075 15.3762L141.041 15.4096C141.008 15.4763 140.975 15.5096 140.941 15.5763C140.908 15.6097 140.874 15.6764 140.874 15.7098C140.874 15.7431 140.841 15.7765 140.841 15.8098C140.807 15.8765 140.774 15.9432 140.774 16.0433C140.774 16.11 140.774 16.1434 140.741 16.2101C140.741 16.2768 140.707 16.3101 140.707 16.3768V21.1465V22.0804C140.707 22.7475 141.275 23.3145 141.943 23.3145H142.144H156.04C156.274 23.3145 156.441 23.0811 156.374 22.8809L156.04 21.6468Z" fill="#00A9F0"/>
<path d="M173.411 2.3347H177.553V4.50273V6.43727V8.37183H173.578C173.311 8.37183 173.11 8.57197 173.11 8.8388V10.1063C173.11 10.3731 173.311 10.5732 173.578 10.5732H177.553V19.4121C177.553 19.6789 177.754 19.8791 178.021 19.8791H181.462C181.729 19.8791 181.929 19.6789 181.929 19.4121V10.5732H185.57C185.838 10.5732 186.038 10.3731 186.038 10.1063V8.8388C186.038 8.57197 185.838 8.37183 185.57 8.37183H181.929V6.43727V4.50273V2.3347H187.441V17.9112V18.6116V18.645C187.408 19.3454 187.976 19.9124 188.644 19.9124H193.02C193.287 19.9124 193.487 19.7123 193.487 19.4455V18.2781C193.487 18.0112 193.287 17.8111 193.02 17.8111H192.018V2.30133V2.0345V1.90108V1.83439C192.018 1.43413 191.884 1.06723 191.65 0.767041C191.383 0.400144 190.982 0.166655 190.514 0.133301C190.448 0.133301 190.381 0.133301 190.28 0.133301H189.713H173.344C173.077 0.133301 172.876 0.333435 172.876 0.600267V1.90108C172.943 2.13456 173.144 2.3347 173.411 2.3347Z" fill="#00A9F0"/>
<path d="M193.554 21.3133H171.139V20.4461V18.5116V8.57195V7.87152V7.60469V7.33786V5.83691H169.636H169.269H168.901H168.2H165.527C165.26 5.83691 165.06 6.03703 165.06 6.30386V7.60469C165.06 7.87153 165.26 8.07164 165.527 8.07164H166.663V18.4782V20.4128V21.2799V21.7469C166.663 22.0805 166.763 22.3807 166.93 22.6475C167.131 22.981 167.465 23.2479 167.832 23.3813L167.899 23.4146L167.966 23.448C167.999 23.448 168.033 23.4814 168.066 23.4814C168.099 23.4814 168.133 23.4814 168.166 23.5147H168.233C168.3 23.5147 168.367 23.5147 168.4 23.5147H168.734H193.521C193.788 23.5147 193.988 23.3146 193.988 23.0477V21.8136C194.055 21.5468 193.821 21.3133 193.554 21.3133Z" fill="#00A9F0"/>
<path d="M23.8897 0.767147C21.8186 0.433603 17.5762 0 13.5676 0C6.65273 0 2.5439 0.96726 1.30791 2.23472C-0.395747 4.03587 -0.22872 8.3386 0.639813 9.83953C1.54175 11.4405 1.97602 12.0409 10.4609 13.5752C10.8618 13.6419 11.6635 13.8087 12.2982 13.9088C12.365 13.9088 12.4318 13.9421 12.532 13.9421C15.8391 14.5425 17.2755 14.876 18.1107 15.1429C18.6451 15.3096 18.8122 15.7099 18.879 15.91C19.0794 16.5438 19.1462 17.9113 18.8122 18.445C18.6451 18.7451 18.4781 19.012 17.8769 19.0787C17.1419 19.1788 15.7055 19.579 11.2292 19.579C7.08698 19.579 3.74647 19.2121 1.1743 18.8786C1.14089 18.8786 1.07408 18.8786 1.04067 18.8786C0.472789 18.8786 0.0385229 19.3122 0.00511773 19.8792C0.00511773 20.4462 0.00511773 21.2134 0.00511773 21.8805C0.00511773 22.4141 0.405978 22.8144 0.907055 22.8811C2.97817 23.2146 7.22061 23.6482 11.2292 23.6482C18.1441 23.6482 22.2529 22.681 23.4889 21.4135C25.1926 19.6123 25.0255 15.3096 24.157 13.8087C23.2551 12.2077 22.8208 11.6073 14.3359 10.073C13.935 10.0063 12.8995 9.77283 12.2648 9.67277C12.198 9.67277 12.1311 9.6394 12.0309 9.6394C8.72386 9.03903 7.52126 8.7722 6.71955 8.50537C6.18506 8.3386 6.01804 7.93833 5.95123 7.7382C5.75078 7.10447 5.68397 5.73693 6.01804 5.20327C6.18506 4.9031 6.35208 4.63627 6.95338 4.56953C7.68828 4.4695 8.18937 4.06923 13.601 4.06923C17.7432 4.06923 21.0837 4.43613 23.6559 4.76967C23.6893 4.76967 23.7561 4.76967 23.7895 4.76967C24.3574 4.76967 24.7917 4.33607 24.8251 3.76903C24.8251 3.20201 24.8251 2.43486 24.8251 1.76778C24.7917 1.26746 24.3908 0.833857 23.8897 0.767147Z" fill="#00A9F0"/>
<path d="M124.272 0.200195H120.998C120.43 0.200195 119.963 0.667149 119.963 1.23417V16.0102L108.572 1.03406C108.238 0.600449 107.503 0.233542 106.935 0.233542H105.732H102.458H102.392C102.158 0.233542 101.991 0.300262 101.891 0.43368C101.623 0.633805 101.456 0.933995 101.456 1.26754V22.4809C101.456 23.0479 101.924 23.5149 102.492 23.5149H105.766C106.333 23.5149 106.801 23.0479 106.801 22.4809V7.33803L118.493 22.681C118.827 23.1146 119.562 23.4815 120.13 23.4815H121.032H123.069H124.305C124.873 23.4815 125.341 23.0145 125.341 22.4476V1.23417C125.308 0.667149 124.84 0.200195 124.272 0.200195Z" fill="#00A9F0"/>
<path d="M168.901 0.100098H165.527L166.362 3.06862C166.663 4.16933 167.131 4.16933 168.166 4.16933C169.436 4.16933 169.703 4.16933 170.972 4.16933V4.10263L170.037 0.967305C169.87 0.433634 169.436 0.100098 168.901 0.100098Z" fill="#F8B500"/>
</g>
<defs>
<clipPath id="clip0_537_5896">
<rect width="194" height="24" fill="white"/>
</clipPath>
</defs>
</svg>
