<svg width="322" height="80" viewBox="0 0 322 80" fill="none" xmlns="http://www.w3.org/2000/svg">
<path d="M19.0094 4.16309C10.1455 13.0719 1.19201 26.0103 6.56412 43.6934C13.2794 65.7635 36.7827 68.3154 41.8415 70.0166C48.266 72.1722 48.3578 78.8177 48.3717 79.8262C48.3728 79.9068 48.3742 79.9518 48.3776 79.9551L47.7506 80C47.7506 80 47.1239 73.2393 37.8122 70.9561C28.3214 68.6282 10.9071 62.4953 5.57974 44.1406C2.53554 33.6203 4.23621 17.5039 19.0094 4.16309ZM302.991 4.16309C317.764 17.5039 319.466 33.6202 316.422 44.1406C311.094 62.4954 293.679 68.6282 284.188 70.9561C274.877 73.2393 274.25 80 274.25 80L273.624 79.9551C273.627 79.9514 273.627 79.9064 273.629 79.8262C273.642 78.8177 273.735 72.1721 280.16 70.0166C285.219 68.3154 308.721 65.7629 315.436 43.6934C320.808 26.0102 311.855 13.0719 302.991 4.16309ZM27.0231 73.0156C28.6791 71.673 30.7824 70.7332 31.1413 71.3145C31.4994 71.8517 31.7682 74.4933 29.2165 75.9258C27.0336 77.1729 23.6987 76.9128 23.6657 76.9102C23.6874 76.8739 25.0688 74.5702 27.0231 73.0156ZM290.859 71.3145C291.218 70.733 293.321 71.6729 294.977 73.0156C296.939 74.5761 298.324 76.8913 298.336 76.9102C298.336 76.9102 294.978 77.1793 292.784 75.9258C290.232 74.4933 290.501 71.8517 290.859 71.3145ZM20.1735 67.5098C22.0985 67.2412 24.2028 67.599 24.2028 68.2705C24.2027 68.8975 23.4414 71.3597 20.7555 71.1807C18.4276 71.0017 15.652 68.9863 15.652 68.9863C15.673 68.9748 17.8568 67.7771 20.1735 67.5098ZM297.798 68.2705C297.798 67.599 299.902 67.2412 301.827 67.5098C304.138 67.7764 306.317 68.9689 306.348 68.9863C306.342 68.991 303.57 71.0019 301.245 71.1807C298.559 71.3595 297.798 68.8975 297.798 68.2705ZM32.3502 56.0488C32.3502 56.0488 33.7377 57.8842 34.2301 60.5254C34.6778 63.0772 34.0517 65.3609 33.5592 65.54C33.1115 65.719 31.6788 63.3906 31.4997 60.8389C31.3213 58.2528 32.3421 56.0662 32.3502 56.0488ZM289.65 56.0488C289.652 56.053 290.68 58.2449 290.501 60.8389C290.322 63.3907 288.889 65.7191 288.441 65.54C287.949 65.3604 287.323 63.0769 287.77 60.5254C288.261 57.8948 289.639 56.0634 289.65 56.0488ZM8.1315 60.9287C8.16654 60.9213 10.4761 60.439 12.653 60.8389C14.4884 61.1523 16.3232 62.0479 16.1442 62.6299C15.9648 63.2122 14.6219 65.1814 12.2047 64.2861C10.1154 63.5304 8.15868 60.9644 8.1315 60.9287ZM309.348 60.8389C311.542 60.4361 313.87 60.9287 313.87 60.9287C313.862 60.9389 311.896 63.5266 309.796 64.2861C307.378 65.1813 306.035 63.2121 305.856 62.6299C305.677 62.0479 307.513 61.1523 309.348 60.8389ZM23.7545 54.6611C23.7545 54.6611 25.456 56.2284 26.3961 58.7354C27.2913 61.1527 27.0675 63.5254 26.6198 63.7939C26.1715 64.0613 24.3811 62.0473 23.7545 59.541C23.1316 57.005 23.747 54.6894 23.7545 54.6611ZM298.246 54.6611C298.252 54.6858 298.869 57.0029 298.246 59.541C297.619 62.0476 295.828 64.0619 295.381 63.7939C294.933 63.5254 294.709 61.1527 295.604 58.7354C296.544 56.2284 298.246 54.6611 298.246 54.6611ZM17.6667 50.1396C17.6794 50.1576 18.878 51.8537 19.3678 54.3027C19.8603 56.72 19.4572 58.8684 19.0544 59.0479C18.6515 59.2269 17.3984 57.0786 17.1745 54.6611C16.9071 52.255 17.6596 50.1591 17.6667 50.1396ZM304.334 50.1396C304.338 50.152 305.095 52.2509 304.827 54.6611C304.603 57.0786 303.349 59.2269 302.946 59.0479C302.543 58.8677 302.14 56.7196 302.632 54.3027C303.121 51.8583 304.316 50.164 304.334 50.1396ZM2.80337 51.2139C2.80337 51.2139 5.08719 51.5272 6.96744 52.6016C8.53421 53.497 9.92142 54.8853 9.60806 55.333C9.24917 55.781 7.45915 57.0778 5.53482 55.5117C3.87841 54.1239 2.80337 51.2139 2.80337 51.2139ZM319.197 51.2139C319.197 51.2139 318.123 54.1239 316.466 55.5117C314.542 57.0783 312.751 55.7809 312.392 55.333C312.079 54.8853 313.467 53.497 315.034 52.6016C316.914 51.5273 319.197 51.2139 319.197 51.2139ZM13.1452 44.499C13.1571 44.5243 13.9962 46.306 14.0407 48.6172C14.0854 50.8553 13.2794 52.7352 12.8317 52.8252C12.4288 52.9147 11.6234 50.7665 11.8024 48.4834C11.9807 46.2545 13.1354 44.5138 13.1452 44.499ZM308.855 44.499C308.855 44.499 310.02 46.245 310.199 48.4834C310.378 50.7665 309.571 52.9147 309.169 52.8252C308.721 52.7345 307.916 50.8549 307.961 48.6172C308.005 46.3088 308.841 44.5285 308.855 44.499ZM0.162749 40.9619C0.187643 40.9757 2.27488 42.1355 3.69888 43.7373C4.90761 45.0803 5.6241 46.4688 5.17642 46.7822C4.72851 47.1404 2.89334 47.3187 1.55044 45.2148C0.431251 43.3794 0.162749 40.9619 0.162749 40.9619ZM321.839 40.9619C321.839 40.9619 321.57 43.3795 320.451 45.2148C319.108 47.3189 317.272 47.1404 316.824 46.7822C316.376 46.4688 317.093 45.0803 318.301 43.7373C319.734 42.1258 321.839 40.9619 321.839 40.9619ZM10.7272 38.3203C10.7272 38.3203 11.1748 40.0666 10.7272 42.0811C10.3243 44.0509 9.20531 45.4834 8.8024 45.4834C8.44431 45.4828 8.08589 43.4238 8.71255 41.499C9.33932 39.5741 10.7272 38.3203 10.7272 38.3203ZM311.273 38.3203C311.273 38.3203 312.661 39.5741 313.288 41.499C313.914 43.424 313.556 45.4834 313.198 45.4834C312.795 45.4831 311.676 44.0507 311.273 42.0811C310.826 40.0666 311.273 38.3203 311.273 38.3203ZM0.0729055 31.0234C0.0729055 31.0234 1.77424 32.5904 2.66959 34.4707C3.38587 35.948 3.92261 37.6942 3.38541 37.918C2.84794 38.1414 1.19224 37.2907 0.431304 35.0078C-0.240194 33.038 0.0729055 31.0234 0.0729055 31.0234ZM321.927 31.0234C321.927 31.0234 322.241 33.0381 321.57 35.0078C320.809 37.291 319.152 38.1417 318.615 37.918C318.078 37.6942 318.614 35.948 319.331 34.4707C320.223 32.5969 321.916 31.0343 321.927 31.0234ZM9.65298 31.9189C9.65298 31.9189 9.83217 33.5305 9.1608 35.2314C8.53405 36.8431 7.28051 37.9176 6.87759 37.8281C6.47472 37.7385 6.42974 35.8588 7.32486 34.292C8.17132 32.7773 9.63876 31.9272 9.65298 31.9189ZM312.347 31.9189C312.347 31.9189 313.825 32.7699 314.675 34.292C315.571 35.8588 315.526 37.7385 315.123 37.8281C314.72 37.9171 313.466 36.8428 312.84 35.2314C312.168 33.5305 312.347 31.9189 312.347 31.9189ZM10.5036 25.5615C10.5036 25.5615 10.4591 27.1739 9.42935 28.3379C8.44453 29.5017 7.23562 30.1283 6.83267 29.7256C6.38504 29.3227 6.87746 28.1141 7.90689 26.9502C8.88859 25.8346 10.4932 25.5633 10.5036 25.5615ZM311.497 25.5615C311.497 25.5615 313.109 25.831 314.093 26.9502C315.123 28.1141 315.615 29.3227 315.168 29.7256C314.765 30.1281 313.556 29.5017 312.571 28.3379C311.541 27.1739 311.497 25.5615 311.497 25.5615ZM1.95279 22.4727C1.95279 22.4727 3.16131 24.2636 3.60904 26.1885C3.96718 27.7554 4.10148 29.4564 3.60904 29.5459C3.11631 29.6349 1.81899 28.516 1.55044 26.2334C1.32662 24.2636 1.95279 22.4727 1.95279 22.4727ZM320.048 22.4727C320.048 22.4727 320.675 24.2636 320.451 26.2334C320.182 28.5164 318.884 29.6353 318.391 29.5459C317.899 29.4564 318.033 27.7554 318.391 26.1885C318.839 24.2636 320.048 22.4727 320.048 22.4727ZM12.3395 19.6973C12.3395 19.6973 11.9362 21.0409 10.817 21.8467C9.69824 22.6969 8.57921 23.0548 8.31021 22.6973C8.04161 22.3391 8.71347 21.3537 9.83267 20.5479C10.9518 19.6975 12.3395 19.6973 12.3395 19.6973ZM309.662 19.6973C309.689 19.6973 311.061 19.7057 312.169 20.5479C313.288 21.3536 313.959 22.3391 313.69 22.6973C313.421 23.0546 312.302 22.6969 311.183 21.8467C310.066 21.0425 309.663 19.7025 309.662 19.6973ZM5.22134 15.1309C5.22134 15.1309 6.07209 17.2803 6.11685 18.9814C6.20636 20.7272 6.11609 21.8914 5.62369 21.8467C5.13118 21.8015 4.23587 20.9057 4.19107 18.9365C4.19107 17.0562 5.22134 15.1309 5.22134 15.1309ZM316.779 15.1309C316.779 15.1309 317.809 17.0562 317.809 18.9365C317.764 20.906 316.869 21.8018 316.377 21.8467C315.884 21.8914 315.795 20.7272 315.884 18.9814C315.929 17.2803 316.779 15.1309 316.779 15.1309ZM12.6969 14.7734C13.8609 14.2361 15.1598 14.5039 15.1598 14.5039C15.1598 14.5039 14.5776 15.7128 13.4137 16.25C12.2498 16.7872 11.1309 16.9215 10.9518 16.5186C10.7729 16.1157 11.5334 15.3553 12.6969 14.7734ZM306.84 14.5039C306.84 14.5039 308.139 14.2361 309.303 14.7734C310.467 15.3551 311.228 16.1156 311.049 16.5186C310.87 16.9215 309.75 16.7872 308.587 16.25C307.423 15.7127 306.84 14.5039 306.84 14.5039ZM8.93716 9.58008C8.95156 9.60217 9.78667 10.892 9.69791 12.4453C9.6531 14.0117 9.1609 15.2648 8.66861 15.2207C8.17617 15.176 7.81736 13.8776 7.90689 12.3555C7.95166 10.7886 8.93716 9.58008 8.93716 9.58008ZM313.064 9.58008C313.082 9.60257 314.049 10.8033 314.093 12.3555C314.183 13.8772 313.825 15.1754 313.333 15.2207C312.84 15.2655 312.347 14.0121 312.302 12.4453C312.213 10.8785 313.064 9.58008 313.064 9.58008ZM16.0553 9.93848C17.1717 9.67069 18.2435 10.2482 18.2487 10.251C18.2487 10.251 17.5769 11.2363 16.4577 11.5049C15.3385 11.7734 14.3539 11.6391 14.2643 11.1914C14.1301 10.7885 14.9362 10.2071 16.0553 9.93848ZM303.752 10.251C303.752 10.251 304.827 9.66987 305.946 9.93848C307.065 10.2072 307.87 10.7886 307.736 11.1914C307.646 11.6391 306.662 11.7735 305.543 11.5049C304.424 11.2362 303.752 10.251 303.752 10.251ZM13.279 4.83496C13.2888 4.85482 13.9044 6.09945 13.6823 7.52051C13.4585 8.95308 12.921 10.0719 12.4733 9.98242C12.0258 9.89247 11.8472 8.68436 12.071 7.29688C12.2922 5.88091 13.2566 4.85847 13.279 4.83496ZM308.721 4.83496C308.74 4.85455 309.709 5.8781 309.93 7.29688C310.154 8.68457 309.975 9.89287 309.527 9.98242C309.079 10.0719 308.542 8.95308 308.318 7.52051C308.096 6.10169 308.71 4.85862 308.721 4.83496ZM19.5465 6.04297C20.6657 5.8639 21.696 6.53613 21.696 6.53613C21.6846 6.55005 20.9259 7.47755 19.8151 7.65527C18.6961 7.83424 17.7561 7.60974 17.6667 7.16211C17.5775 6.71453 18.4277 6.17729 19.5465 6.04297ZM300.305 6.53613C300.318 6.52812 301.341 5.865 302.454 6.04297C303.573 6.17725 304.423 6.71449 304.334 7.16211C304.244 7.60977 303.304 7.83431 302.185 7.65527C301.081 7.47862 300.326 6.56089 300.305 6.53613ZM17.5768 1.20801C17.5768 1.20801 18.1137 2.37248 17.8004 3.62598C17.4422 4.83455 16.8603 5.77491 16.4127 5.64062C15.9653 5.50602 15.876 4.43118 16.234 3.22266C16.5475 1.96927 17.5768 1.20801 17.5768 1.20801ZM304.423 1.20801C304.423 1.20801 305.453 1.96931 305.766 3.22266C306.124 4.43139 306.035 5.50633 305.588 5.64062C305.14 5.77491 304.558 4.83458 304.2 3.62598C303.887 2.37248 304.423 1.20801 304.423 1.20801ZM23.1725 0C23.1724 0.0268382 23.1642 1.30805 22.3669 2.23828C21.5612 3.17815 20.6663 3.7148 20.3083 3.44629C19.9501 3.13291 20.3081 2.14813 21.1139 1.20801C21.91 0.279516 23.1427 0.00649609 23.1725 0ZM298.828 0C298.85 0.00483913 300.088 0.276702 300.886 1.20801C301.692 2.14777 302.051 3.13252 301.693 3.44629C301.335 3.71488 300.439 3.17826 299.633 2.23828C298.836 1.30804 298.828 0.0268122 298.828 0Z" fill="url(#paint0_linear_649_88)"/>
<defs>
<linearGradient id="paint0_linear_649_88" x1="184.501" y1="83.5454" x2="187.317" y2="0.436972" gradientUnits="userSpaceOnUse">
<stop stop-color="#0068EB"/>
<stop offset="1" stop-color="#53F0B4"/>
</linearGradient>
</defs>
</svg>
