<svg width="30" height="30" viewBox="0 0 30 30" fill="none" xmlns="http://www.w3.org/2000/svg">
<path d="M14.88 2.47998C8.03165 2.47998 2.47998 8.03165 2.47998 14.88C2.47998 21.7283 8.03165 27.28 14.88 27.28C21.7283 27.28 27.28 21.7283 27.28 14.88C27.28 8.03165 21.7283 2.47998 14.88 2.47998ZM13.64 10.85V18.91C13.64 19.4236 13.2236 19.84 12.71 19.84C12.1964 19.84 11.78 19.4236 11.78 18.91V10.85C11.78 10.3364 12.1964 9.91998 12.71 9.91998C13.2236 9.91998 13.64 10.3364 13.64 10.85ZM21.08 10.85V18.91C21.08 19.4236 20.6636 19.84 20.15 19.84C19.6364 19.84 19.22 19.4236 19.22 18.91V10.85C19.22 10.3364 19.6364 9.91998 20.15 9.91998C20.6636 9.91998 21.08 10.3364 21.08 10.85ZM17.36 12.71V17.05C17.36 17.5636 16.9436 17.98 16.43 17.98C15.9164 17.98 15.5 17.5636 15.5 17.05V12.71C15.5 12.1964 15.9164 11.78 16.43 11.78C16.9436 11.78 17.36 12.1964 17.36 12.71ZM9.91998 13.33V16.43C9.91998 16.9436 9.5036 17.36 8.98998 17.36C8.47636 17.36 8.05998 16.9436 8.05998 16.43V13.33C8.05998 12.8164 8.47636 12.4 8.98998 12.4C9.5036 12.4 9.91998 12.8164 9.91998 13.33Z" fill="#0D99FF"/>
</svg>
