<svg width="32" height="32" viewBox="0 0 32 32" fill="none" xmlns="http://www.w3.org/2000/svg">
<rect width="32" height="32" rx="8" fill="#1D2233"/>
<path d="M13.6667 14.8889C13.1144 14.8889 12.6667 15.262 12.6667 15.7222C12.6667 16.1824 13.1144 16.5556 13.6667 16.5556H18.3333C18.8856 16.5556 19.3333 16.1824 19.3333 15.7222C19.3333 15.262 18.8856 14.8889 18.3333 14.8889H13.6667ZM4 8.5C4 7.11929 5.34315 6 7 6H25C26.6568 6 28 7.11929 28 8.5V10.1667C28 11.0334 27.4707 11.7972 26.6667 12.2457V21.8333C26.6667 24.1346 24.4281 26 21.6667 26H10.3333C7.57191 26 5.33333 24.1346 5.33333 21.8333V12.2457C4.52935 11.7972 4 11.0334 4 10.1667V8.5ZM7.33333 12.6667V21.8333C7.33333 23.214 8.67648 24.3333 10.3333 24.3333H21.6667C23.3235 24.3333 24.6667 23.214 24.6667 21.8333V12.6667H7.33333ZM7 7.66667C6.44772 7.66667 6 8.03977 6 8.5V10.1667C6 10.6269 6.44772 11 7 11H25C25.5523 11 26 10.6269 26 10.1667V8.5C26 8.03977 25.5523 7.66667 25 7.66667H7Z" fill="white"/>
</svg>
