<svg width="40" height="40" viewBox="0 0 40 40" fill="none" xmlns="http://www.w3.org/2000/svg">
<path d="M36 20C36 23.8096 34.6407 27.4943 32.1665 30.3912C29.6923 33.288 26.2657 35.2071 22.503 35.803C18.7402 36.399 14.8883 35.6328 11.64 33.6422C8.39177 31.6517 5.96035 28.5675 4.7831 24.9443C3.60585 21.3211 3.76004 17.3967 5.21792 13.8771C6.67581 10.3574 9.34172 7.47345 12.7361 5.7439C16.1306 4.01435 20.0307 3.55274 23.7351 4.44208C27.4395 5.33142 30.705 7.51335 32.9443 10.5954L31.6498 11.5359C29.6345 8.76202 26.6956 6.79828 23.3616 5.99787C20.0277 5.19746 16.5175 5.61292 13.4625 7.16951C10.4075 8.7261 8.00823 11.3217 6.69613 14.4894C5.38403 17.6571 5.24527 21.189 6.30479 24.4499C7.36431 27.7107 9.55259 30.4865 12.476 32.278C15.3995 34.0695 18.8662 34.7591 22.2527 34.2227C25.6391 33.6863 28.7231 31.9592 30.9498 29.3521C33.1766 26.7449 34.4 23.4287 34.4 20H36Z" fill="#1D2233"/>
<path d="M17 26H14V14H17V26ZM26 26H23V14H26V26Z" fill="#1D2233"/>
</svg>
