<svg width="40" height="40" viewBox="0 0 40 40" fill="none" xmlns="http://www.w3.org/2000/svg">
<path d="M36 20C36 22.6312 35.3511 25.2218 34.1107 27.5423C32.8704 29.8629 31.0769 31.8417 28.8891 33.3035C26.7013 34.7653 24.1868 35.6651 21.5683 35.923C18.9497 36.1809 16.308 35.789 13.8771 34.7821C11.4461 33.7752 9.30106 32.1843 7.63183 30.1503C5.96261 28.1163 4.82076 25.7021 4.30744 23.1214C3.79411 20.5408 3.92515 17.8734 4.68895 15.3554C5.45276 12.8375 6.82574 10.5468 8.68629 8.68629L9.81766 9.81766C8.14317 11.4922 6.90748 13.5538 6.22006 15.8199C5.53264 18.086 5.4147 20.4867 5.87669 22.8093C6.33868 25.1319 7.36635 27.3047 8.86865 29.1353C10.371 30.9658 12.3015 32.3976 14.4894 33.3039C16.6772 34.2101 19.0548 34.5628 21.4114 34.3307C23.7681 34.0985 26.0312 33.2888 28.0002 31.9732C29.9692 30.6575 31.5834 28.8766 32.6997 26.7881C33.816 24.6996 34.4 22.3681 34.4 20H36Z" fill="#1D2233"/>
<path d="M17 26H14V14H17V26ZM26 26H23V14H26V26Z" fill="#1D2233"/>
</svg>
