<svg width="32" height="32" viewBox="0 0 32 32" fill="none" xmlns="http://www.w3.org/2000/svg">
<path d="M32 16C32 19.8096 30.6407 23.4943 28.1665 26.3912C25.6923 29.288 22.2657 31.2071 18.503 31.803C14.7402 32.399 10.8883 31.6328 7.64003 29.6422C4.39177 27.6517 1.96035 24.5675 0.783098 20.9443C-0.39415 17.3211 -0.239964 13.3967 1.21792 9.87708C2.67581 6.35742 5.34172 3.47345 8.73614 1.7439C12.1306 0.0143547 16.0307 -0.447262 19.7351 0.442078C23.4395 1.33142 26.705 3.51335 28.9443 6.59542L27.6498 7.53588C25.6345 4.76202 22.6956 2.79828 19.3616 1.99787C16.0277 1.19746 12.5175 1.61292 9.46253 3.16951C6.40755 4.7261 4.00823 7.32167 2.69613 10.4894C1.38403 13.6571 1.24527 17.189 2.30479 20.4499C3.36431 23.7107 5.55259 26.4865 8.47603 28.278C11.3995 30.0695 14.8662 30.7591 18.2527 30.2227C21.6391 29.6863 24.7231 27.9592 26.9498 25.3521C29.1766 22.7449 30.4 19.4287 30.4 16H32Z" fill="#1D2233"/>
</svg>
