<svg width="40" height="40" viewBox="0 0 40 40" fill="none" xmlns="http://www.w3.org/2000/svg">
<path d="M36 20C36 11.1634 28.8366 4 20 4C11.1634 4 4 11.1634 4 20C4 28.8366 11.1634 36 20 36C28.8366 36 36 28.8366 36 20ZM5.6 20C5.6 12.0471 12.0471 5.6 20 5.6C27.9529 5.6 34.4 12.0471 34.4 20C34.4 27.9529 27.9529 34.4 20 34.4C12.0471 34.4 5.6 27.9529 5.6 20Z" fill="#1D2233"/>
<path d="M25.5647 19.5886C26.1777 20.0033 26.1435 20.917 25.5012 21.2847L17.4968 25.867C16.8302 26.2487 16 25.7673 16 24.9992V15.0014C16 14.1996 16.8963 13.7239 17.5604 14.1731L25.5647 19.5886Z" fill="#1D2233"/>
</svg>
