<svg width="24" height="24" viewBox="0 0 24 24" fill="none" xmlns="http://www.w3.org/2000/svg">
<path d="M20 21.375C20.4142 21.375 20.75 21.7108 20.75 22.125C20.75 22.5392 20.4142 22.875 20 22.875H4C3.58579 22.875 3.25 22.5392 3.25 22.125C3.25 21.7108 3.58579 21.375 4 21.375H20ZM20.2061 1.12988C22.3194 1.23711 24 2.98496 24 5.125V15.125C24 17.265 22.3194 19.0129 20.2061 19.1201L20 19.125H4C1.85996 19.125 0.112115 17.4444 0.00488281 15.3311L0 15.125V5.125C0 2.91586 1.79086 1.125 4 1.125H20L20.2061 1.12988ZM4 2.625C2.61929 2.625 1.5 3.74429 1.5 5.125V15.125C1.5 16.5057 2.61929 17.625 4 17.625H20C21.3807 17.625 22.5 16.5057 22.5 15.125V5.125C22.5 3.74429 21.3807 2.625 20 2.625H4Z" fill="#1D2233"/>
</svg>
