<svg width="32" height="32" viewBox="0 0 32 32" fill="none" xmlns="http://www.w3.org/2000/svg">
<path d="M3.33325 5.66675C3.33325 5.11447 3.78097 4.66675 4.33325 4.66675H5.0776C6.34489 4.66675 7.10368 5.51873 7.53759 6.31073C7.8268 6.83867 8.03602 7.45099 8.19968 8.00535C8.244 8.00187 8.28891 8.00008 8.33432 8.00008H24.9974C26.1043 8.00008 26.9036 9.05931 26.6002 10.1238L24.1631 18.6693C23.7141 20.2443 22.2749 21.3305 20.6371 21.3305H12.7063C11.055 21.3305 9.60738 20.2266 9.17036 18.6342L8.15637 14.9394L6.47824 9.27445L6.47552 9.26453C6.26792 8.50743 6.07308 7.80015 5.78356 7.27168C5.5024 6.75848 5.27828 6.66675 5.0776 6.66675H4.33325C3.78097 6.66675 3.33325 6.21903 3.33325 5.66675ZM11.9999 28.0001C13.4727 28.0001 14.6666 26.8062 14.6666 25.3334C14.6666 23.8606 13.4727 22.6667 11.9999 22.6667C10.5272 22.6667 9.33325 23.8606 9.33325 25.3334C9.33325 26.8062 10.5272 28.0001 11.9999 28.0001ZM21.3333 28.0001C22.8061 28.0001 23.9999 26.8062 23.9999 25.3334C23.9999 23.8606 22.8061 22.6667 21.3333 22.6667C19.8605 22.6667 18.6666 23.8606 18.6666 25.3334C18.6666 26.8062 19.8605 28.0001 21.3333 28.0001Z" fill="white"/>
</svg>
