<svg width="334" height="110" viewBox="0 0 334 110" fill="none" xmlns="http://www.w3.org/2000/svg">
<path d="M148.47 102L151.755 102.478L149.378 104.795L149.938 108.068L147 106.523L144.062 108.068L144.622 104.795L142.245 102.478L145.53 102L147 99.0229L148.47 102ZM168.47 102L171.755 102.478L169.378 104.795L169.938 108.068L167 106.523L164.062 108.068L164.622 104.795L162.245 102.478L165.53 102L167 99.0229L168.47 102ZM188.47 102L191.755 102.478L189.378 104.795L189.938 108.068L187 106.523L184.062 108.068L184.622 104.795L182.245 102.478L185.53 102L187 99.0229L188.47 102ZM132 105.023H92V104.023H132V105.023ZM242 105.023H202V104.023H242V105.023Z" fill="url(#paint0_linear_411_538)" fill-opacity="0.3"/>
<path d="M25.0089 28.7085C16.145 37.6173 7.19153 50.5557 12.5636 68.2388C19.2789 90.3089 42.7822 92.8608 47.841 94.562C54.2655 96.7176 54.3573 103.363 54.3712 104.372C54.3723 104.452 54.3737 104.497 54.3771 104.5L53.7502 104.545C53.7502 104.545 53.1234 97.7847 43.8117 95.5015C34.3209 93.1736 16.9066 87.0407 11.5793 68.686C8.53505 58.1657 10.2357 42.0493 25.0089 28.7085ZM308.99 28.7085C323.764 42.0493 325.465 58.1656 322.421 68.686C317.094 87.0408 299.678 93.1736 290.188 95.5015C280.876 97.7847 280.249 104.545 280.249 104.545L279.623 104.5C279.627 104.497 279.627 104.452 279.628 104.372C279.642 103.363 279.734 96.7175 286.159 94.562C291.219 92.8608 314.721 90.3083 321.436 68.2388C326.808 50.5556 317.854 37.6173 308.99 28.7085ZM33.0226 97.561C34.6787 96.2184 36.782 95.2786 37.1408 95.8599C37.4989 96.3971 37.7677 99.0387 35.216 100.471C33.0331 101.718 29.6982 101.458 29.6652 101.456C29.6869 101.419 31.0684 99.1156 33.0226 97.561ZM296.859 95.8599C297.217 95.2784 299.321 96.2183 300.977 97.561C302.938 99.1215 304.324 101.437 304.335 101.456C304.335 101.456 300.977 101.725 298.783 100.471C296.232 99.0387 296.5 96.3971 296.859 95.8599ZM26.173 92.0552C28.098 91.7866 30.2023 92.1444 30.2023 92.8159C30.2022 93.4429 29.4409 95.9051 26.755 95.7261C24.4271 95.5471 21.6515 93.5317 21.6515 93.5317C21.6725 93.5202 23.8563 92.3225 26.173 92.0552ZM303.797 92.8159C303.797 92.1444 305.901 91.7866 307.826 92.0552C310.137 92.3218 312.316 93.5144 312.348 93.5317C312.341 93.5364 309.57 95.5473 307.244 95.7261C304.559 95.905 303.797 93.4429 303.797 92.8159ZM38.3498 80.5942C38.3498 80.5942 39.7372 82.4296 40.2296 85.0708C40.6773 87.6226 40.0512 89.9063 39.5587 90.0854C39.111 90.2644 37.6783 87.936 37.4992 85.3843C37.3208 82.7982 38.3416 80.6116 38.3498 80.5942ZM295.65 80.5942C295.652 80.5984 296.679 82.7903 296.5 85.3843C296.321 87.9361 294.888 90.2645 294.441 90.0854C293.948 89.9058 293.322 87.6223 293.77 85.0708C294.26 82.4402 295.639 80.6088 295.65 80.5942ZM14.131 85.4741C14.1661 85.4668 16.4756 84.9844 18.6525 85.3843C20.4879 85.6977 22.3227 86.5933 22.1437 87.1753C21.9643 87.7576 20.6214 89.7268 18.2043 88.8315C16.1149 88.0758 14.1582 85.5099 14.131 85.4741ZM315.348 85.3843C317.541 84.9815 319.869 85.4741 319.869 85.4741C319.862 85.4843 317.895 88.072 315.795 88.8315C313.378 89.7267 312.035 87.7575 311.856 87.1753C311.677 86.5933 313.512 85.6977 315.348 85.3843ZM29.7541 79.2065C29.7541 79.2065 31.4556 80.7738 32.3957 83.2808C33.2908 85.6981 33.067 88.0708 32.6193 88.3394C32.171 88.6067 30.3806 86.5927 29.7541 84.0864C29.1311 81.5504 29.7465 79.2348 29.7541 79.2065ZM304.245 79.2065C304.252 79.2312 304.869 81.5483 304.245 84.0864C303.619 86.593 301.828 88.6074 301.38 88.3394C300.932 88.0708 300.709 85.6981 301.604 83.2808C302.544 80.7738 304.245 79.2065 304.245 79.2065ZM23.6662 74.6851C23.6789 74.703 24.8775 76.3991 25.3673 78.8481C25.8598 81.2654 25.4567 83.4138 25.0539 83.5933C24.651 83.7724 23.3979 81.624 23.174 79.2065C22.9066 76.8004 23.6592 74.7045 23.6662 74.6851ZM310.333 74.6851C310.338 74.6974 311.094 76.7963 310.826 79.2065C310.602 81.624 309.348 83.7724 308.945 83.5933C308.543 83.4131 308.14 81.265 308.632 78.8481C309.121 76.4037 310.316 74.7094 310.333 74.6851ZM8.80289 75.7593C8.80289 75.7593 11.0867 76.0726 12.9669 77.147C14.5337 78.0424 15.9209 79.4307 15.6076 79.8784C15.2487 80.3264 13.4587 81.6232 11.5343 80.0571C9.87792 78.6693 8.80289 75.7593 8.80289 75.7593ZM325.196 75.7593C325.196 75.7593 324.122 78.6693 322.466 80.0571C320.541 81.6237 318.75 80.3263 318.392 79.8784C318.078 79.4307 319.466 78.0424 321.033 77.147C322.914 76.0727 325.196 75.7593 325.196 75.7593ZM19.1447 69.0444C19.1566 69.0697 19.9957 70.8514 20.0402 73.1626C20.0849 75.4007 19.2789 77.2806 18.8312 77.3706C18.4283 77.4601 17.6229 75.3119 17.8019 73.0288C17.9802 70.7999 19.1349 69.0592 19.1447 69.0444ZM314.855 69.0444C314.855 69.0444 316.019 70.7904 316.198 73.0288C316.377 75.3119 315.571 77.4601 315.168 77.3706C314.72 77.2799 313.915 75.4003 313.96 73.1626C314.005 70.8542 314.841 69.0739 314.855 69.0444ZM6.16226 65.5073C6.18716 65.5211 8.27439 66.6809 9.69839 68.2827C10.9071 69.6257 11.6236 71.0142 11.1759 71.3276C10.728 71.6858 8.89285 71.8641 7.54996 69.7603C6.43076 67.9249 6.16226 65.5073 6.16226 65.5073ZM327.838 65.5073C327.838 65.5073 327.569 67.9249 326.45 69.7603C325.107 71.8644 323.271 71.6858 322.823 71.3276C322.376 71.0142 323.092 69.6257 324.301 68.2827C325.734 66.6712 327.838 65.5073 327.838 65.5073ZM16.7267 62.8657C16.7267 62.8657 17.1743 64.612 16.7267 66.6265C16.3238 68.5963 15.2048 70.0288 14.8019 70.0288C14.4438 70.0282 14.0854 67.9692 14.7121 66.0444C15.3388 64.1195 16.7267 62.8657 16.7267 62.8657ZM317.273 62.8657C317.273 62.8657 318.66 64.1195 319.287 66.0444C319.914 67.9694 319.556 70.0288 319.197 70.0288C318.794 70.0286 317.675 68.5961 317.273 66.6265C316.825 64.612 317.273 62.8657 317.273 62.8657ZM6.07242 55.5688C6.07242 55.5688 7.77375 57.1358 8.6691 59.0161C9.38538 60.4934 9.92212 62.2396 9.38492 62.4634C8.84745 62.6868 7.19176 61.8361 6.43082 59.5532C5.75932 57.5834 6.07242 55.5688 6.07242 55.5688ZM327.927 55.5688C327.927 55.5688 328.241 57.5835 327.569 59.5532C326.808 61.8364 325.152 62.6871 324.614 62.4634C324.077 62.2396 324.614 60.4934 325.33 59.0161C326.222 57.1424 327.915 55.5797 327.927 55.5688ZM15.6525 56.4644C15.6525 56.4644 15.8317 58.0759 15.1603 59.7769C14.5336 61.3885 13.28 62.463 12.8771 62.3735C12.4742 62.2839 12.4293 60.4042 13.3244 58.8374C14.1708 57.3227 15.6383 56.4726 15.6525 56.4644ZM318.347 56.4644C318.347 56.4644 319.824 57.3153 320.675 58.8374C321.57 60.4042 321.525 62.2839 321.122 62.3735C320.719 62.4625 319.466 61.3882 318.839 59.7769C318.168 58.0759 318.347 56.4644 318.347 56.4644ZM16.5031 50.1069C16.5031 50.1069 16.4586 51.7193 15.4289 52.8833C14.444 54.0471 13.2351 54.6738 12.8322 54.271C12.3846 53.8681 12.877 52.6595 13.9064 51.4956C14.8881 50.38 16.4927 50.1087 16.5031 50.1069ZM317.496 50.1069C317.496 50.1069 319.108 50.3764 320.093 51.4956C321.122 52.6595 321.615 53.8681 321.167 54.271C320.764 54.6735 319.555 54.0471 318.57 52.8833C317.541 51.7193 317.496 50.1069 317.496 50.1069ZM7.9523 47.0181C7.9523 47.0181 9.16082 48.809 9.60855 50.7339C9.96669 52.3008 10.101 54.0018 9.60855 54.0913C9.11582 54.1803 7.8185 53.0614 7.54996 50.7788C7.32613 48.809 7.9523 47.0181 7.9523 47.0181ZM326.047 47.0181C326.047 47.0181 326.674 48.8091 326.45 50.7788C326.182 53.0618 324.883 54.1807 324.391 54.0913C323.898 54.0018 324.033 52.3008 324.391 50.7339C324.838 48.809 326.047 47.0181 326.047 47.0181ZM18.339 44.2427C18.339 44.2427 17.9358 45.5863 16.8166 46.3921C15.6978 47.2423 14.5787 47.6002 14.3097 47.2427C14.0411 46.8845 14.713 45.8991 15.8322 45.0933C16.9513 44.2429 18.339 44.2427 18.339 44.2427ZM315.661 44.2427C315.688 44.2428 317.06 44.2511 318.168 45.0933C319.287 45.899 319.958 46.8845 319.69 47.2427C319.42 47.6001 318.302 47.2423 317.183 46.3921C316.066 45.5879 315.663 44.2479 315.661 44.2427ZM11.2209 39.6763C11.2209 39.6763 12.0716 41.8258 12.1164 43.5269C12.2059 45.2726 12.1156 46.4368 11.6232 46.3921C11.1307 46.3469 10.2354 45.4511 10.1906 43.4819C10.1906 41.6016 11.2209 39.6763 11.2209 39.6763ZM322.778 39.6763C322.778 39.6763 323.809 41.6016 323.809 43.4819C323.764 45.4515 322.869 46.3472 322.376 46.3921C321.884 46.4368 321.794 45.2727 321.884 43.5269C321.929 41.8258 322.778 39.6763 322.778 39.6763ZM18.6964 39.3188C19.8604 38.7815 21.1593 39.0493 21.1593 39.0493C21.1593 39.0493 20.5771 40.2582 19.4132 40.7954C18.2493 41.3326 17.1304 41.4669 16.9513 41.064C16.7724 40.6611 17.5329 39.9007 18.6964 39.3188ZM312.84 39.0493C312.84 39.0493 314.139 38.7815 315.303 39.3188C316.466 39.9005 317.227 40.661 317.049 41.064C316.87 41.4669 315.75 41.3326 314.586 40.7954C313.422 40.2581 312.84 39.0493 312.84 39.0493ZM14.9367 34.1255C14.9511 34.1476 15.7862 35.4374 15.6974 36.9907C15.6526 38.5571 15.1604 39.8102 14.6681 39.7661C14.1757 39.7214 13.8169 38.423 13.9064 36.9009C13.9512 35.334 14.9367 34.1255 14.9367 34.1255ZM319.064 34.1255C319.082 34.148 320.049 35.3487 320.093 36.9009C320.182 38.4226 319.824 39.7209 319.332 39.7661C318.84 39.8109 318.347 38.5575 318.302 36.9907C318.212 35.4239 319.064 34.1255 319.064 34.1255ZM22.0548 34.4839C23.1712 34.2161 24.2431 34.7936 24.2482 34.7964C24.2482 34.7964 23.5764 35.7817 22.4572 36.0503C21.338 36.3189 20.3534 36.1845 20.2638 35.7368C20.1296 35.3339 20.9357 34.7525 22.0548 34.4839ZM309.751 34.7964C309.751 34.7964 310.826 34.2153 311.945 34.4839C313.064 34.7526 313.87 35.334 313.736 35.7368C313.646 36.1845 312.661 36.3189 311.542 36.0503C310.423 35.7817 309.751 34.7964 309.751 34.7964ZM19.2785 29.3804C19.2883 29.4002 19.9039 30.6449 19.6818 32.0659C19.458 33.4985 18.9205 34.6173 18.4728 34.5278C18.0253 34.4379 17.8467 33.2298 18.0705 31.8423C18.2917 30.4263 19.2561 29.4039 19.2785 29.3804ZM314.721 29.3804C314.739 29.4 315.708 30.4235 315.93 31.8423C316.154 33.23 315.974 34.4383 315.527 34.5278C315.079 34.6173 314.541 33.4985 314.318 32.0659C314.096 30.6471 314.709 29.404 314.721 29.3804ZM25.5461 30.5884C26.6652 30.4093 27.6955 31.0815 27.6955 31.0815C27.6841 31.0955 26.9254 32.023 25.8146 32.2007C24.6956 32.3796 23.7557 32.1552 23.6662 31.7075C23.577 31.2599 24.4272 30.7227 25.5461 30.5884ZM306.305 31.0815C306.317 31.0735 307.341 30.4104 308.453 30.5884C309.572 30.7227 310.422 31.2599 310.333 31.7075C310.244 32.1552 309.304 32.3797 308.185 32.2007C307.081 32.024 306.325 31.1063 306.305 31.0815ZM23.5763 25.7534C23.5763 25.7534 24.1133 26.9179 23.8 28.1714C23.4417 29.38 22.8598 30.3203 22.4123 30.186C21.9648 30.0514 21.8755 28.9766 22.2336 27.7681C22.547 26.5147 23.5763 25.7534 23.5763 25.7534ZM310.423 25.7534C310.423 25.7534 311.452 26.5147 311.766 27.7681C312.124 28.9768 312.035 30.0517 311.587 30.186C311.139 30.3203 310.558 29.38 310.199 28.1714C309.886 26.9179 310.423 25.7534 310.423 25.7534ZM29.172 24.5454C29.1719 24.5722 29.1637 25.8535 28.3664 26.7837C27.5607 27.7236 26.6658 28.2602 26.3078 27.9917C25.9496 27.6783 26.3076 26.6935 27.1134 25.7534C27.9095 24.8249 29.1422 24.5519 29.172 24.5454ZM304.827 24.5454C304.85 24.5502 306.087 24.8221 306.886 25.7534C307.691 26.6932 308.05 27.6779 307.693 27.9917C307.334 28.2603 306.439 27.7237 305.633 26.7837C304.836 25.8534 304.827 24.5722 304.827 24.5454Z" fill="url(#paint1_linear_411_538)"/>
<defs>
<linearGradient id="paint0_linear_411_538" x1="92" y1="103.545" x2="242" y2="103.545" gradientUnits="userSpaceOnUse">
<stop stop-color="#0068EB" stop-opacity="0"/>
<stop offset="0.5" stop-color="#0068EB"/>
<stop offset="1" stop-color="#0068EB" stop-opacity="0"/>
</linearGradient>
<linearGradient id="paint1_linear_411_538" x1="190.5" y1="108.091" x2="193.316" y2="24.9824" gradientUnits="userSpaceOnUse">
<stop stop-color="#0068EB"/>
<stop offset="1" stop-color="#53F0B4"/>
</linearGradient>
</defs>
</svg>
