<svg width="32" height="32" viewBox="0 0 32 32" fill="none" xmlns="http://www.w3.org/2000/svg">
<g clip-path="url(#clip0_442_1491)">
<path d="M21.4511 8.54971C21.3547 8.42515 21.2503 8.3064 21.1386 8.19425C20.7223 7.77673 20.2142 7.46221 19.6547 7.27577L17.8177 6.67919C17.6761 6.62928 17.5534 6.53671 17.4667 6.41424C17.3799 6.29177 17.3334 6.14544 17.3334 5.99541C17.3334 5.84539 17.3799 5.69905 17.4667 5.57659C17.5534 5.45411 17.6761 5.36155 17.8177 5.31163L19.6547 4.71504C20.2063 4.52469 20.7066 4.2094 21.1161 3.79383C21.5143 3.38965 21.8165 2.90127 22.0001 2.36496L22.0153 2.31951L22.6123 0.483859C22.6623 0.342376 22.755 0.21986 22.8775 0.133199C23.0001 0.046538 23.1465 0 23.2966 0C23.4469 0 23.5933 0.046538 23.7158 0.133199C23.8383 0.21986 23.931 0.342376 23.981 0.483859L24.5781 2.31951C24.7637 2.87759 25.077 3.38471 25.4931 3.80055C25.9094 4.2164 26.4169 4.52953 26.9754 4.71504L28.8125 5.31163L28.8491 5.32081C28.9907 5.37072 29.1134 5.46329 29.2001 5.58576C29.2869 5.70823 29.3334 5.85456 29.3334 6.00459C29.3334 6.15461 29.2869 6.30095 29.2001 6.42341C29.1134 6.54589 28.9907 6.63845 28.8491 6.68837L27.0121 7.28496C26.4537 7.47047 25.9461 7.7836 25.5299 8.19945C25.1138 8.61529 24.8005 9.12241 24.6147 9.68049L24.0177 11.5161C24.0123 11.5314 24.0065 11.5464 24.0001 11.5612C23.9474 11.6836 23.8619 11.7895 23.7526 11.8668C23.6299 11.9535 23.4835 12 23.3334 12C23.1833 12 23.0369 11.9535 22.9142 11.8668C22.7917 11.7801 22.699 11.6576 22.6491 11.5161L22.0521 9.68049C21.9171 9.27108 21.7135 8.88885 21.4511 8.54971ZM31.7106 13.6176L30.6901 13.2861C30.3798 13.1831 30.0978 13.0091 29.8666 12.7781C29.6354 12.5471 29.4613 12.2653 29.3582 11.9553L29.0265 10.9355C28.9987 10.8569 28.9473 10.7888 28.8791 10.7407C28.8111 10.6925 28.7298 10.6667 28.6463 10.6667C28.5629 10.6667 28.4815 10.6925 28.4134 10.7407C28.3454 10.7888 28.2939 10.8569 28.2662 10.9355L27.9345 11.9553C27.8334 12.2631 27.6623 12.5435 27.4349 12.7743C27.2074 13.0052 26.9295 13.1804 26.623 13.2861L25.6025 13.6176C25.5238 13.6453 25.4557 13.6967 25.4074 13.7648C25.3593 13.8328 25.3334 13.9141 25.3334 13.9975C25.3334 14.0808 25.3593 14.1621 25.4074 14.2301C25.4557 14.2981 25.5238 14.3496 25.6025 14.3773L26.623 14.7088C26.9338 14.8124 27.2161 14.9871 27.4474 15.2191C27.6786 15.4509 27.8525 15.7337 27.9549 16.0447L28.2866 17.0645C28.3143 17.1431 28.3658 17.2112 28.4339 17.2593C28.5019 17.3075 28.5833 17.3333 28.6667 17.3333C28.7502 17.3333 28.8315 17.3075 28.8995 17.2593C28.9677 17.2112 29.0192 17.1431 29.0469 17.0645L29.3786 16.0447C29.4818 15.7347 29.6558 15.4529 29.887 15.2219C30.1182 14.9909 30.4002 14.8169 30.7105 14.7139L31.731 14.3824C31.8097 14.3547 31.8778 14.3033 31.9261 14.2352C31.9742 14.1672 32.0001 14.0859 32.0001 14.0025C32.0001 13.9192 31.9742 13.8379 31.9261 13.7699C31.8778 13.7019 31.8097 13.6504 31.731 13.6227L31.7106 13.6176ZM16.0001 2.66667C17.2761 2.66667 18.5102 2.84591 19.6786 3.18056C19.5247 3.27617 19.3597 3.35399 19.1867 3.41204L17.4001 3.99871C16.9902 4.14493 16.6329 4.40941 16.3734 4.75871C16.1313 5.11215 16.0011 5.53029 16.0001 5.95871C16.0014 6.38296 16.1315 6.79679 16.3734 7.14537C16.5939 7.52516 16.9303 7.82424 17.3334 7.99871L19.2001 8.61204C19.5597 8.73399 19.8875 8.93439 20.1601 9.19871L20.4001 9.33204C20.5678 9.55399 20.6983 9.80164 20.7867 10.0654L21.3334 11.9987C21.4743 12.4113 21.7399 12.7701 22.0934 13.0254C22.4419 13.2672 22.8558 13.3973 23.2801 13.3987C23.5951 13.4025 23.9065 13.3293 24.1867 13.1854C24.0283 13.4515 23.9454 13.7557 23.9467 14.0653C23.9438 14.4244 24.0559 14.7748 24.2667 15.0653C24.4739 15.3603 24.7674 15.5839 25.1067 15.7053L26.1601 16.0387C26.2681 16.0831 26.3674 16.1463 26.4534 16.2253C26.5385 16.3119 26.6023 16.4168 26.6401 16.532L26.9601 17.5453C27.0835 17.8947 27.3117 18.1972 27.6134 18.412C27.9051 18.6205 28.2547 18.7327 28.6134 18.7327C28.767 18.7327 28.919 18.712 29.0656 18.6721C27.8281 24.7553 22.4487 29.3333 16.0001 29.3333C13.8129 29.3333 11.7003 28.8052 9.80779 27.8111L4.08725 29.3004C3.48155 29.4583 2.86261 29.0951 2.70485 28.4893C2.65607 28.3021 2.65605 28.1055 2.70481 27.9181L4.19328 22.2003C3.19635 20.3059 2.66675 18.1904 2.66675 16C2.66675 8.6362 8.63628 2.66667 16.0001 2.66667Z" fill="#1D2233"/>
</g>
<defs>
<clipPath id="clip0_442_1491">
<rect width="32" height="32" fill="white"/>
</clipPath>
</defs>
</svg>
