<svg width="40" height="40" viewBox="0 0 40 40" fill="none" xmlns="http://www.w3.org/2000/svg">
<path d="M32 7C34.2091 7 36 8.79086 36 11V29C36 31.2091 34.2091 33 32 33H8C5.85996 33 4.11211 31.3194 4.00488 29.2061L4 29V11C4 8.79086 5.79086 7 8 7H32ZM6 27.4443V29C6 30.1046 6.89543 31 8 31H32C32.5881 31 33.1145 30.744 33.4805 30.3398L26.7852 22.3057L21.8662 25.333L22.2939 25.8926C22.6294 26.3312 22.546 26.9584 22.1074 27.2939C21.6688 27.6294 21.0416 27.546 20.7061 27.1074L14.8633 19.4668L6 27.4443ZM8 9C6.89543 9 6 9.89543 6 11V24.7539L14.3311 17.2568L14.4121 17.1914C14.6077 17.0492 14.8496 16.9813 15.0928 17.0039C15.3705 17.0298 15.6245 17.1711 15.7939 17.3926L20.6445 23.7363L26.4756 20.1484C26.899 19.8879 27.4502 19.9775 27.7686 20.3594L34 27.8369V11C34 9.89543 33.1046 9 32 9H8ZM28 12C29.1046 12 30 12.8954 30 14C30 15.1046 29.1046 16 28 16C26.8954 16 26 15.1046 26 14C26 12.8954 26.8954 12 28 12Z" fill="white"/>
</svg>
