<svg width="194" height="24" viewBox="0 0 194 24" fill="none" xmlns="http://www.w3.org/2000/svg">
<g clip-path="url(#clip0_255_585)">
<path d="M57.0944 11.774C57.0944 11.5072 56.9942 11.3071 56.7938 11.1403C56.7603 11.1069 56.7603 11.1069 56.727 11.0736L46.0707 0.800449C45.6699 0.400197 44.8681 0.100016 44.3003 0.100016H39.657C39.0891 0.100016 38.9554 0.433552 39.3563 0.800449L47.5071 8.63872L50.7808 11.774L50.0459 12.4745L39.3897 22.7476C38.9889 23.1479 39.1225 23.448 39.6904 23.448H44.3337C44.9015 23.448 45.7033 23.1145 46.1041 22.7476L56.7603 12.4745C56.7938 12.4411 56.7938 12.4411 56.8272 12.4078C56.9608 12.241 57.0944 12.0409 57.0944 11.774Z" fill="#F8B500"/>
<path d="M34.3455 0.100016H31.005C30.4371 0.100016 29.9695 0.566969 29.9695 1.13399V22.4474C29.9695 23.0144 30.4371 23.4814 31.005 23.4814H34.3455C34.9134 23.4814 35.3811 23.0144 35.3811 22.4474V1.13399C35.3477 0.566969 34.9134 0.100016 34.3455 0.100016Z" fill="#00A9F0"/>
<path d="M95.243 0.100017L91.6352 0.0666504C91.0673 0.0666504 90.5997 0.533624 90.5997 1.10065V1.13399V14.4757C90.5997 20.6796 76.7031 20.713 76.7031 14.3089V1.10065C76.7031 1.03394 76.7031 1.00059 76.6697 0.933877C76.6029 0.43356 76.1686 0.0666505 75.6676 0.0666505H72.1266C71.5587 0.0666505 71.0911 0.533624 71.0911 1.10065V1.13399V8.70542V15.9767C71.0911 16.7105 71.1579 17.3776 71.3249 18.0113C73.396 26.1831 93.8065 25.8829 95.911 17.7778C96.1449 16.9106 96.2451 16.4103 96.2451 15.5431V8.70542V1.10065C96.2451 0.56698 95.8108 0.100017 95.243 0.100017Z" fill="#00A9F0"/>
<path d="M67.5835 0.100016H62.9402C62.3723 0.100016 61.5706 0.433552 61.1697 0.800449L55.2236 6.50405L58.5641 9.73942L67.8508 0.800449C68.2516 0.400197 68.1514 0.100016 67.5835 0.100016Z" fill="#00A9F0"/>
<path d="M58.5641 13.8086L55.2236 17.044L61.1697 22.7476C61.5706 23.1479 62.3723 23.448 62.9402 23.448H67.5835C68.1514 23.448 68.285 23.1145 67.8842 22.7476L58.5641 13.8086Z" fill="#00A9F0"/>
<path d="M159.08 14.6759H155.773C156.374 17.1441 156.842 19.0786 157.477 21.5802C157.877 23.1145 158.145 23.348 159.681 23.348H161.118H162.02H162.053L160.182 15.5764C160.116 15.0428 159.648 14.6759 159.08 14.6759Z" fill="#00A9F0"/>
<path d="M136.031 15.2429H135.931C135.596 15.2429 134.661 15.4097 134.561 16.6771L134.227 20.0125L134.093 21.2133L133.993 22.3473L133.893 23.3813H136.398C137.3 23.3813 137.935 23.0144 138.035 21.9471L138.703 15.2429H136.031Z" fill="#00A9F0"/>
<path d="M150.963 14.6759H147.622L148.758 18.7785C149.059 19.8791 149.526 19.8791 150.562 19.8791C151.831 19.8791 152.099 19.8791 153.368 19.8791V19.8124L152.132 15.5097C151.932 15.0094 151.497 14.6759 150.963 14.6759Z" fill="#00A9F0"/>
<path fill-rule="evenodd" clip-rule="evenodd" d="M135.83 11.774L135.864 11.8074L135.93 11.8741L135.997 11.9408L136.031 11.9741C136.064 12.0075 136.097 12.0409 136.131 12.0742C136.231 12.1409 136.298 12.2076 136.398 12.2743C136.431 12.3077 136.498 12.3077 136.532 12.341L136.598 12.3744L136.665 12.4078C136.832 12.4745 137.033 12.5078 137.2 12.5078C137.233 12.5078 137.267 12.5078 137.3 12.5078H152.666H153.902H154.203C154.47 12.5078 154.671 12.3077 154.671 12.0409V11.0736C154.671 10.8067 154.47 10.6066 154.203 10.6066H152.666H150.261V7.60475H156.074V12.5412H157.477H158.345H158.779C158.846 12.5412 158.913 12.5412 158.946 12.5412C159.414 12.5078 159.815 12.2743 160.116 11.9074C160.349 11.6073 160.517 11.2404 160.517 10.8401V10.6066V10.3064V2.03457V1.83445C160.517 1.80109 160.517 1.76772 160.517 1.73437V1.66767C160.517 1.63432 160.517 1.5676 160.483 1.53425V1.5009C160.483 1.46755 160.483 1.43418 160.45 1.40082L160.416 1.30077V1.26742C160.182 0.600332 159.548 0.100016 158.779 0.100016C158.746 0.100016 158.713 0.100016 158.679 0.100016C158.646 0.100016 158.579 0.100016 158.546 0.100016H138.235H137.634H137.2C136.966 0.100016 136.765 0.133358 136.565 0.233421C136.064 0.466899 135.663 0.900512 135.53 1.46754C135.53 1.50089 135.496 1.56761 135.496 1.60096V1.63431C135.496 1.70102 135.496 1.76773 135.496 1.80108V2.06791V2.36811V10.74C135.496 10.8067 135.496 10.8401 135.496 10.9068C135.529 11.2404 135.63 11.5405 135.83 11.774ZM150.295 2.20134H156.107V5.20322H150.295V2.20134ZM139.906 2.40145V2.23468H145.852V5.23658H139.906V2.40145ZM139.906 7.57138H145.852V10.5733H139.906V7.57138Z" fill="#00A9F0"/>
<path d="M156.04 21.6469C155.973 21.3801 155.706 21.18 155.406 21.18H144.716V14.6759H142.511H142.478H142.444H142.411C142.21 14.6759 142.01 14.7092 141.81 14.8093C141.509 14.9427 141.275 15.1428 141.075 15.3763L141.041 15.4097C141.008 15.4764 140.975 15.5097 140.941 15.5764C140.908 15.6098 140.874 15.6765 140.874 15.7098C140.874 15.7432 140.841 15.7766 140.841 15.8099C140.807 15.8766 140.774 15.9433 140.774 16.0434C140.774 16.1101 140.774 16.1435 140.741 16.2102C140.741 16.2769 140.707 16.3102 140.707 16.3769V21.1466V22.0805C140.707 22.7476 141.275 23.3146 141.943 23.3146H142.144H156.04C156.274 23.3146 156.441 23.0812 156.374 22.881L156.04 21.6469Z" fill="#00A9F0"/>
<path d="M173.411 2.33476H177.553V4.5028V6.43733V8.37189H173.578C173.311 8.37189 173.11 8.57203 173.11 8.83886V10.1063C173.11 10.3732 173.311 10.5733 173.578 10.5733H177.553V19.4122C177.553 19.679 177.754 19.8791 178.021 19.8791H181.462C181.729 19.8791 181.929 19.679 181.929 19.4122V10.5733H185.57C185.838 10.5733 186.038 10.3732 186.038 10.1063V8.83886C186.038 8.57203 185.838 8.37189 185.57 8.37189H181.929V6.43733V4.5028V2.33476H187.441V17.9112V18.6117V18.645C187.408 19.3455 187.976 19.9125 188.644 19.9125H193.02C193.287 19.9125 193.487 19.7124 193.487 19.4455V18.2781C193.487 18.0113 193.287 17.8112 193.02 17.8112H192.018V2.3014V2.03456V1.90114V1.83445C192.018 1.4342 191.884 1.06729 191.65 0.767102C191.383 0.400205 190.982 0.166716 190.514 0.133362C190.448 0.133362 190.381 0.133362 190.28 0.133362H189.713H173.344C173.077 0.133362 172.876 0.333496 172.876 0.600328V1.90114C172.943 2.13462 173.144 2.33476 173.411 2.33476Z" fill="#00A9F0"/>
<path d="M193.554 21.3134H171.139V20.4461V18.5116V8.57201V7.87158V7.60474V7.33791V5.83697H169.636H169.269H168.901H168.2H165.527C165.26 5.83697 165.06 6.03708 165.06 6.30391V7.60474C165.06 7.87158 165.26 8.07169 165.527 8.07169H166.663V18.4783V20.4128V21.28V21.747C166.663 22.0805 166.763 22.3807 166.93 22.6476C167.131 22.9811 167.465 23.2479 167.832 23.3814L167.899 23.4147L167.966 23.448C167.999 23.448 168.033 23.4814 168.066 23.4814C168.099 23.4814 168.133 23.4814 168.166 23.5148H168.233C168.3 23.5148 168.367 23.5148 168.4 23.5148H168.734H193.521C193.788 23.5148 193.988 23.3146 193.988 23.0478V21.8137C194.055 21.5469 193.821 21.3134 193.554 21.3134Z" fill="#00A9F0"/>
<path d="M23.8897 0.767147C21.8186 0.433603 17.5762 0 13.5676 0C6.65273 0 2.5439 0.96726 1.30791 2.23472C-0.395747 4.03587 -0.22872 8.3386 0.639813 9.83953C1.54175 11.4405 1.97602 12.0409 10.4609 13.5752C10.8618 13.6419 11.6635 13.8087 12.2982 13.9088C12.365 13.9088 12.4318 13.9421 12.532 13.9421C15.8391 14.5425 17.2755 14.876 18.1107 15.1429C18.6451 15.3096 18.8122 15.7099 18.879 15.91C19.0794 16.5438 19.1462 17.9113 18.8122 18.445C18.6451 18.7451 18.4781 19.012 17.8769 19.0787C17.1419 19.1788 15.7055 19.579 11.2292 19.579C7.08698 19.579 3.74647 19.2121 1.1743 18.8786C1.14089 18.8786 1.07408 18.8786 1.04067 18.8786C0.472789 18.8786 0.0385229 19.3122 0.00511773 19.8792C0.00511773 20.4462 0.00511773 21.2134 0.00511773 21.8805C0.00511773 22.4141 0.405978 22.8144 0.907055 22.8811C2.97817 23.2146 7.22061 23.6482 11.2292 23.6482C18.1441 23.6482 22.2529 22.681 23.4889 21.4135C25.1926 19.6123 25.0255 15.3096 24.157 13.8087C23.2551 12.2077 22.8208 11.6073 14.3359 10.073C13.935 10.0063 12.8995 9.77283 12.2648 9.67277C12.198 9.67277 12.1311 9.6394 12.0309 9.6394C8.72386 9.03903 7.52126 8.7722 6.71955 8.50537C6.18506 8.3386 6.01804 7.93833 5.95123 7.7382C5.75078 7.10447 5.68397 5.73693 6.01804 5.20327C6.18506 4.9031 6.35208 4.63627 6.95338 4.56953C7.68828 4.4695 8.18937 4.06923 13.601 4.06923C17.7432 4.06923 21.0837 4.43613 23.6559 4.76967C23.6893 4.76967 23.7561 4.76967 23.7895 4.76967C24.3574 4.76967 24.7917 4.33607 24.8251 3.76903C24.8251 3.20201 24.8251 2.43486 24.8251 1.76778C24.7917 1.26746 24.3908 0.833857 23.8897 0.767147Z" fill="#00A9F0"/>
<path d="M124.272 0.200075H120.998C120.43 0.200075 119.963 0.667028 119.963 1.23405V16.01L108.572 1.03394C108.238 0.600329 107.503 0.233421 106.935 0.233421H105.732H102.458H102.392C102.158 0.233421 101.991 0.300142 101.891 0.433559C101.623 0.633685 101.456 0.933875 101.456 1.26742V22.4808C101.456 23.0478 101.924 23.5148 102.492 23.5148H105.766C106.333 23.5148 106.801 23.0478 106.801 22.4808V7.33791L118.493 22.6809C118.827 23.1145 119.562 23.4814 120.13 23.4814H121.032H123.069H124.305C124.873 23.4814 125.341 23.0144 125.341 22.4474V1.23405C125.308 0.667028 124.84 0.200075 124.272 0.200075Z" fill="#00A9F0"/>
<path d="M168.901 0.100016H165.527L166.362 3.06854C166.663 4.16925 167.131 4.16925 168.166 4.16925C169.436 4.16925 169.703 4.16925 170.972 4.16925V4.10255L170.037 0.967223C169.87 0.433552 169.436 0.100016 168.901 0.100016Z" fill="#F8B500"/>
</g>
<defs>
<clipPath id="clip0_255_585">
<rect width="194" height="24" fill="white"/>
</clipPath>
</defs>
</svg>
